<?xml version="1.0" encoding="utf-8"?>
<!DOCTYPE svg PUBLIC "-//W3C//DTD SVG 1.1//EN" "http://www.w3.org/Graphics/SVG/1.1/DTD/svg11.dtd">
<svg version="1.1" xmlns="http://www.w3.org/2000/svg" xmlns:xlink="http://www.w3.org/1999/xlink" x="0px" y="0px" width="800px" height="800px" viewBox="0 0 800 800" enable-background="new 0 0 800 800" xml:space="preserve">
<rect x="-10" y="-10" fill="#FBF2ED" stroke="#000000" stroke-miterlimit="10" width="880" height="880"/>
<g>
  <path fill="#FFD2D9" stroke="#FFB1BD" stroke-miterlimit="10" d="M252.047,407.217c-124.799,0-225.969,97.287-225.969,97.287
    s16.957,16.301,45.539,35.556c-24.804,23.926-38.672,42.923-38.672,42.923s116.526,78.241,239.43,56.569
    c122.902-21.671,205.642-135.048,205.642-135.048S376.846,407.217,252.047,407.217z"/>
  <line display="none" fill="none" x1="71.616" y1="540.06" x2="517" y2="501.093"/>
</g>
<g>
  <path fill="#FFD2D9" stroke="#FFB1BD" stroke-miterlimit="10" d="M345.844,724.068c-38.565,118.691,22.697,244.973,22.697,244.973
    s20.743-11.09,47.887-32.322c15.091,30.983,28.872,50.044,28.872,50.044s110.421-86.646,127.789-210.231
    c17.368-123.583-64.892-237.309-64.892-237.309S384.409,605.378,345.844,724.068z"/>
  <line display="none" fill="none" x1="416.428" y1="936.719" x2="517" y2="501.092"/>
</g>
<g>
  <path fill="#FFD2D9" stroke="#FFB1BD" stroke-miterlimit="10" d="M676.172,732.774c100.965,73.355,239.997,54.115,239.997,54.115
    s-4.138-23.155-15.942-55.532c34.13-4.777,56.517-11.994,56.517-11.994S908.46,587.572,796.29,532.864
    c-112.168-54.708-245.747-11.617-245.747-11.617S575.208,659.42,676.172,732.774z"/>
  <line display="none" fill="none" x1="900.227" y1="731.357" x2="517" y2="501.092"/>
</g>
<g>
  <path fill="#FFD2D9" stroke="#FFB1BD" stroke-miterlimit="10" d="M786.529,421.305c100.965-73.355,125.63-211.528,125.63-211.528
    s-23.301-3.22-57.741-1.999c6.003-33.936,6.058-57.457,6.058-57.457s-140.261,5.194-226.954,94.968
    c-86.691,89.772-86.988,230.129-86.988,230.129S685.565,494.659,786.529,421.305z"/>
  <line display="none" fill="none" x1="854.418" y1="207.778" x2="517" y2="501.093"/>
</g>
<g>
  <path fill="#FFD2D9" stroke="#FFB1BD" stroke-miterlimit="10" d="M524.406,220.099C485.841,101.408,362.052,35.252,362.052,35.252
    s-10.263,21.165-19.744,54.297c-30.419-16.196-52.772-23.516-52.772-23.516s-38.403,135.001,20.188,245.193
    c58.59,110.19,191.985,153.844,191.985,153.844S562.971,338.789,524.406,220.099z"/>
  <line display="none" fill="none" x1="342.309" y1="89.549" x2="517" y2="501.093"/>
</g>
</svg>
